<svg width="66" height="4434" viewBox="0 0 66 4434" fill="none" xmlns="http://www.w3.org/2000/svg">
<path d="M35.2464 5.88258C21.3991 4.60564 25.3089 22.6022 25.3089 22.6022C25.3089 22.6022 7.7814 16.2878 6.22287 27.7634C4.66434 39.239 22.6412 37.8785 22.6412 37.8785C22.6412 37.8785 9.40576 50.5535 20.3978 56.4573C31.3899 62.3612 35.3168 47.1547 35.3168 47.1547C35.3168 47.1547 44.5964 61.1737 53.7562 51.9165C62.916 42.6594 47.2924 38.3692 47.2924 38.3692C47.2924 38.3692 64.2232 32.6515 61.2081 23.0601C58.193 13.4687 41.872 21.7707 41.872 21.7707C41.872 21.7707 49.0937 7.15953 35.2464 5.88258Z" stroke="#F7D9DE" stroke-width="5"/>
<path fill-rule="evenodd" clip-rule="evenodd" d="M35.4998 193C31.699 186.312 24.2178 176.401 16.8574 180.215C9.49691 184.028 6.78079 192.448 10.4018 199.585C13.4125 205.519 23.5134 218.834 26.8332 223.154C27.2045 223.637 27.3903 223.879 27.6389 224.011C27.8556 224.126 28.1084 224.18 28.3537 224.163C28.6346 224.144 28.9025 223.999 29.4388 223.709C34.2316 221.118 48.8831 213.078 54.0515 208.887C60.2678 203.846 61.3394 195.02 56.054 188.568C50.7686 182.116 41.6968 188.443 35.4998 193Z" stroke="#F7D9DE" stroke-width="5" stroke-linecap="round" stroke-linejoin="round"/>
<path d="M10.5383 116.752C6.13731 112.13 5.03277 106.037 8.07121 103.144C11.1096 100.251 17.1405 101.653 21.5414 106.274C25.9424 110.896 32.5497 121.205 28.7306 124.841C24.9116 128.477 14.9392 121.373 10.5383 116.752Z" stroke="#F7D9DE" stroke-width="5"/>
<path d="M25.0737 105.337C23.8687 99.0696 26.2317 93.3468 30.3518 92.5546C34.4719 91.7624 38.7887 96.2008 39.9938 102.468C41.1988 108.735 41.1873 120.979 36.0087 121.975C30.8302 122.971 26.2788 111.604 25.0737 105.337Z" stroke="#F7D9DE" stroke-width="5"/>
<path d="M49.7358 124.958C52.2418 131.531 48.6497 139.284 41.2852 142.092C33.9207 144.9 26.0786 141.505 23.5726 134.932C21.0667 128.359 24.6587 120.605 32.0232 117.798C39.3877 114.99 47.2298 118.384 49.7358 124.958Z" fill="#FFF8F8" stroke="#F7D9DE" stroke-width="5"/>
<path d="M35.2464 263.883C21.3991 262.606 25.3089 280.602 25.3089 280.602C25.3089 280.602 7.7814 274.288 6.22287 285.763C4.66434 297.239 22.6412 295.878 22.6412 295.878C22.6412 295.878 9.40576 308.553 20.3978 314.457C31.3899 320.361 35.3168 305.155 35.3168 305.155C35.3168 305.155 44.5964 319.174 53.7562 309.917C62.916 300.659 47.2924 296.369 47.2924 296.369C47.2924 296.369 64.2232 290.651 61.2081 281.06C58.193 271.469 41.872 279.771 41.872 279.771C41.872 279.771 49.0937 265.16 35.2464 263.883Z" stroke="#F7D9DE" stroke-width="5"/>
<path fill-rule="evenodd" clip-rule="evenodd" d="M35.4998 451C31.699 444.312 24.2178 434.401 16.8574 438.215C9.49691 442.028 6.78079 450.448 10.4018 457.585C13.4125 463.519 23.5134 476.834 26.8332 481.154C27.2045 481.637 27.3903 481.879 27.6389 482.011C27.8556 482.126 28.1084 482.18 28.3537 482.163C28.6346 482.144 28.9025 481.999 29.4388 481.709C34.2316 479.118 48.8831 471.078 54.0515 466.887C60.2678 461.846 61.3394 453.02 56.054 446.568C50.7686 440.116 41.6968 446.443 35.4998 451Z" stroke="#F7D9DE" stroke-width="5" stroke-linecap="round" stroke-linejoin="round"/>
<path d="M10.5383 374.752C6.13731 370.13 5.03277 364.037 8.07121 361.144C11.1096 358.251 17.1405 359.653 21.5414 364.274C25.9424 368.896 32.5497 379.205 28.7306 382.841C24.9116 386.477 14.9392 379.373 10.5383 374.752Z" stroke="#F7D9DE" stroke-width="5"/>
<path d="M25.0737 363.337C23.8687 357.07 26.2317 351.347 30.3518 350.555C34.4719 349.762 38.7887 354.201 39.9938 360.468C41.1988 366.735 41.1873 378.979 36.0087 379.975C30.8302 380.971 26.2788 369.604 25.0737 363.337Z" stroke="#F7D9DE" stroke-width="5"/>
<path d="M49.7358 382.958C52.2418 389.531 48.6497 397.284 41.2852 400.092C33.9207 402.9 26.0786 399.505 23.5726 392.932C21.0667 386.359 24.6587 378.605 32.0232 375.798C39.3877 372.99 47.2298 376.384 49.7358 382.958Z" fill="#FFF8F8" stroke="#F7D9DE" stroke-width="5"/>
<path d="M35.2464 521.883C21.3991 520.606 25.3089 538.602 25.3089 538.602C25.3089 538.602 7.7814 532.288 6.22287 543.763C4.66434 555.239 22.6412 553.878 22.6412 553.878C22.6412 553.878 9.40576 566.553 20.3978 572.457C31.3899 578.361 35.3168 563.155 35.3168 563.155C35.3168 563.155 44.5964 577.174 53.7562 567.917C62.916 558.659 47.2924 554.369 47.2924 554.369C47.2924 554.369 64.2232 548.651 61.2081 539.06C58.193 529.469 41.872 537.771 41.872 537.771C41.872 537.771 49.0937 523.16 35.2464 521.883Z" stroke="#F7D9DE" stroke-width="5"/>
<path fill-rule="evenodd" clip-rule="evenodd" d="M35.4998 709C31.699 702.312 24.2178 692.401 16.8574 696.215C9.49691 700.028 6.78079 708.448 10.4018 715.585C13.4125 721.519 23.5134 734.834 26.8332 739.154C27.2045 739.637 27.3903 739.879 27.6389 740.011C27.8556 740.126 28.1084 740.18 28.3537 740.163C28.6346 740.144 28.9025 739.999 29.4388 739.709C34.2316 737.118 48.8831 729.078 54.0515 724.887C60.2678 719.846 61.3394 711.02 56.054 704.568C50.7686 698.116 41.6968 704.443 35.4998 709Z" stroke="#F7D9DE" stroke-width="5" stroke-linecap="round" stroke-linejoin="round"/>
<path d="M10.5383 632.752C6.13731 628.13 5.03277 622.037 8.07121 619.144C11.1096 616.251 17.1405 617.653 21.5414 622.274C25.9424 626.896 32.5497 637.205 28.7306 640.841C24.9116 644.477 14.9392 637.373 10.5383 632.752Z" stroke="#F7D9DE" stroke-width="5"/>
<path d="M25.0737 621.337C23.8687 615.07 26.2317 609.347 30.3518 608.555C34.4719 607.762 38.7887 612.201 39.9938 618.468C41.1988 624.735 41.1873 636.979 36.0087 637.975C30.8302 638.971 26.2788 627.604 25.0737 621.337Z" stroke="#F7D9DE" stroke-width="5"/>
<path d="M49.7358 640.958C52.2418 647.531 48.6497 655.284 41.2852 658.092C33.9207 660.9 26.0786 657.505 23.5726 650.932C21.0667 644.359 24.6587 636.605 32.0232 633.798C39.3877 630.99 47.2298 634.384 49.7358 640.958Z" fill="#FFF8F8" stroke="#F7D9DE" stroke-width="5"/>
<path d="M35.2464 779.883C21.3991 778.606 25.3089 796.602 25.3089 796.602C25.3089 796.602 7.7814 790.288 6.22287 801.763C4.66434 813.239 22.6412 811.878 22.6412 811.878C22.6412 811.878 9.40576 824.553 20.3978 830.457C31.3899 836.361 35.3168 821.155 35.3168 821.155C35.3168 821.155 44.5964 835.174 53.7562 825.917C62.916 816.659 47.2924 812.369 47.2924 812.369C47.2924 812.369 64.2232 806.651 61.2081 797.06C58.193 787.469 41.872 795.771 41.872 795.771C41.872 795.771 49.0937 781.16 35.2464 779.883Z" stroke="#F7D9DE" stroke-width="5"/>
<path fill-rule="evenodd" clip-rule="evenodd" d="M35.4998 967C31.699 960.312 24.2178 950.401 16.8574 954.215C9.49691 958.028 6.78079 966.448 10.4018 973.585C13.4125 979.519 23.5134 992.833 26.8332 997.154C27.2045 997.637 27.3903 997.879 27.6389 998.011C27.8556 998.126 28.1084 998.18 28.3537 998.163C28.6346 998.144 28.9025 997.999 29.4388 997.709C34.2316 995.118 48.8831 987.078 54.0515 982.887C60.2678 977.846 61.3394 969.02 56.054 962.568C50.7686 956.116 41.6968 962.443 35.4998 967Z" stroke="#F7D9DE" stroke-width="5" stroke-linecap="round" stroke-linejoin="round"/>
<path d="M10.5383 890.752C6.13731 886.13 5.03277 880.037 8.07121 877.144C11.1096 874.251 17.1405 875.653 21.5414 880.274C25.9424 884.896 32.5497 895.205 28.7306 898.841C24.9116 902.477 14.9392 895.373 10.5383 890.752Z" stroke="#F7D9DE" stroke-width="5"/>
<path d="M25.0737 879.337C23.8687 873.07 26.2317 867.347 30.3518 866.555C34.4719 865.762 38.7887 870.201 39.9938 876.468C41.1988 882.735 41.1873 894.979 36.0087 895.975C30.8302 896.971 26.2788 885.604 25.0737 879.337Z" stroke="#F7D9DE" stroke-width="5"/>
<path d="M49.7358 898.958C52.2418 905.531 48.6497 913.284 41.2852 916.092C33.9207 918.9 26.0786 915.505 23.5726 908.932C21.0667 902.359 24.6587 894.605 32.0232 891.798C39.3877 888.99 47.2298 892.384 49.7358 898.958Z" fill="#FFF8F8" stroke="#F7D9DE" stroke-width="5"/>
<path d="M35.2464 1045.88C21.3991 1044.61 25.3089 1062.6 25.3089 1062.6C25.3089 1062.6 7.7814 1056.29 6.22287 1067.76C4.66434 1079.24 22.6412 1077.88 22.6412 1077.88C22.6412 1077.88 9.40576 1090.55 20.3978 1096.46C31.3899 1102.36 35.3168 1087.15 35.3168 1087.15C35.3168 1087.15 44.5964 1101.17 53.7562 1091.92C62.916 1082.66 47.2924 1078.37 47.2924 1078.37C47.2924 1078.37 64.2232 1072.65 61.2081 1063.06C58.193 1053.47 41.872 1061.77 41.872 1061.77C41.872 1061.77 49.0937 1047.16 35.2464 1045.88Z" stroke="#F7D9DE" stroke-width="5"/>
<path fill-rule="evenodd" clip-rule="evenodd" d="M35.4998 1233C31.699 1226.31 24.2178 1216.4 16.8574 1220.21C9.49691 1224.03 6.78079 1232.45 10.4018 1239.58C13.4125 1245.52 23.5134 1258.83 26.8332 1263.15C27.2045 1263.64 27.3903 1263.88 27.6389 1264.01C27.8556 1264.13 28.1084 1264.18 28.3537 1264.16C28.6346 1264.14 28.9025 1264 29.4388 1263.71C34.2316 1261.12 48.8831 1253.08 54.0515 1248.89C60.2678 1243.85 61.3394 1235.02 56.054 1228.57C50.7686 1222.12 41.6968 1228.44 35.4998 1233Z" stroke="#F7D9DE" stroke-width="5" stroke-linecap="round" stroke-linejoin="round"/>
<path d="M10.5383 1156.75C6.13731 1152.13 5.03277 1146.04 8.07121 1143.14C11.1096 1140.25 17.1405 1141.65 21.5414 1146.27C25.9424 1150.9 32.5497 1161.2 28.7306 1164.84C24.9116 1168.48 14.9392 1161.37 10.5383 1156.75Z" stroke="#F7D9DE" stroke-width="5"/>
<path d="M25.0737 1145.34C23.8687 1139.07 26.2317 1133.35 30.3518 1132.55C34.4719 1131.76 38.7887 1136.2 39.9938 1142.47C41.1988 1148.74 41.1873 1160.98 36.0087 1161.97C30.8302 1162.97 26.2788 1151.6 25.0737 1145.34Z" stroke="#F7D9DE" stroke-width="5"/>
<path d="M49.7358 1164.96C52.2418 1171.53 48.6497 1179.28 41.2852 1182.09C33.9207 1184.9 26.0786 1181.51 23.5726 1174.93C21.0667 1168.36 24.6587 1160.61 32.0232 1157.8C39.3877 1154.99 47.2298 1158.38 49.7358 1164.96Z" fill="#FFF8F8" stroke="#F7D9DE" stroke-width="5"/>
<path d="M35.2464 1303.88C21.3991 1302.61 25.3089 1320.6 25.3089 1320.6C25.3089 1320.6 7.7814 1314.29 6.22287 1325.76C4.66434 1337.24 22.6412 1335.88 22.6412 1335.88C22.6412 1335.88 9.40576 1348.55 20.3978 1354.46C31.3899 1360.36 35.3168 1345.15 35.3168 1345.15C35.3168 1345.15 44.5964 1359.17 53.7562 1349.92C62.916 1340.66 47.2924 1336.37 47.2924 1336.37C47.2924 1336.37 64.2232 1330.65 61.2081 1321.06C58.193 1311.47 41.872 1319.77 41.872 1319.77C41.872 1319.77 49.0937 1305.16 35.2464 1303.88Z" stroke="#F7D9DE" stroke-width="5"/>
<path fill-rule="evenodd" clip-rule="evenodd" d="M35.4998 1491C31.699 1484.31 24.2178 1474.4 16.8574 1478.21C9.49691 1482.03 6.78079 1490.45 10.4018 1497.58C13.4125 1503.52 23.5134 1516.83 26.8332 1521.15C27.2045 1521.64 27.3903 1521.88 27.6389 1522.01C27.8556 1522.13 28.1084 1522.18 28.3537 1522.16C28.6346 1522.14 28.9025 1522 29.4388 1521.71C34.2316 1519.12 48.8831 1511.08 54.0515 1506.89C60.2678 1501.85 61.3394 1493.02 56.054 1486.57C50.7686 1480.12 41.6968 1486.44 35.4998 1491Z" stroke="#F7D9DE" stroke-width="5" stroke-linecap="round" stroke-linejoin="round"/>
<path d="M10.5383 1414.75C6.13731 1410.13 5.03277 1404.04 8.07121 1401.14C11.1096 1398.25 17.1405 1399.65 21.5414 1404.27C25.9424 1408.9 32.5497 1419.2 28.7306 1422.84C24.9116 1426.48 14.9392 1419.37 10.5383 1414.75Z" stroke="#F7D9DE" stroke-width="5"/>
<path d="M25.0737 1403.34C23.8687 1397.07 26.2317 1391.35 30.3518 1390.55C34.4719 1389.76 38.7887 1394.2 39.9938 1400.47C41.1988 1406.74 41.1873 1418.98 36.0087 1419.97C30.8302 1420.97 26.2788 1409.6 25.0737 1403.34Z" stroke="#F7D9DE" stroke-width="5"/>
<path d="M49.7358 1422.96C52.2418 1429.53 48.6497 1437.28 41.2852 1440.09C33.9207 1442.9 26.0786 1439.51 23.5726 1432.93C21.0667 1426.36 24.6587 1418.61 32.0232 1415.8C39.3877 1412.99 47.2298 1416.38 49.7358 1422.96Z" fill="#FFF8F8" stroke="#F7D9DE" stroke-width="5"/>
<path d="M35.2464 2609.88C21.3991 2608.61 25.3089 2626.6 25.3089 2626.6C25.3089 2626.6 7.7814 2620.29 6.22287 2631.76C4.66434 2643.24 22.6412 2641.88 22.6412 2641.88C22.6412 2641.88 9.40576 2654.55 20.3978 2660.46C31.3899 2666.36 35.3168 2651.15 35.3168 2651.15C35.3168 2651.15 44.5964 2665.17 53.7562 2655.92C62.916 2646.66 47.2924 2642.37 47.2924 2642.37C47.2924 2642.37 64.2232 2636.65 61.2081 2627.06C58.193 2617.47 41.872 2625.77 41.872 2625.77C41.872 2625.77 49.0937 2611.16 35.2464 2609.88Z" stroke="#F7D9DE" stroke-width="5"/>
<path fill-rule="evenodd" clip-rule="evenodd" d="M35.4998 2797C31.699 2790.31 24.2178 2780.4 16.8574 2784.21C9.49691 2788.03 6.78079 2796.45 10.4018 2803.58C13.4125 2809.52 23.5134 2822.83 26.8332 2827.15C27.2045 2827.64 27.3903 2827.88 27.6389 2828.01C27.8556 2828.13 28.1084 2828.18 28.3537 2828.16C28.6346 2828.14 28.9025 2828 29.4388 2827.71C34.2316 2825.12 48.8831 2817.08 54.0515 2812.89C60.2678 2807.85 61.3394 2799.02 56.054 2792.57C50.7686 2786.12 41.6968 2792.44 35.4998 2797Z" stroke="#F7D9DE" stroke-width="5" stroke-linecap="round" stroke-linejoin="round"/>
<path d="M10.5383 2720.75C6.13731 2716.13 5.03277 2710.04 8.07121 2707.14C11.1096 2704.25 17.1405 2705.65 21.5414 2710.27C25.9424 2714.9 32.5497 2725.2 28.7306 2728.84C24.9116 2732.48 14.9392 2725.37 10.5383 2720.75Z" stroke="#F7D9DE" stroke-width="5"/>
<path d="M25.0737 2709.34C23.8687 2703.07 26.2317 2697.35 30.3518 2696.55C34.4719 2695.76 38.7887 2700.2 39.9938 2706.47C41.1988 2712.74 41.1873 2724.98 36.0087 2725.97C30.8302 2726.97 26.2788 2715.6 25.0737 2709.34Z" stroke="#F7D9DE" stroke-width="5"/>
<path d="M49.7358 2728.96C52.2418 2735.53 48.6497 2743.28 41.2852 2746.09C33.9207 2748.9 26.0786 2745.51 23.5726 2738.93C21.0667 2732.36 24.6587 2724.61 32.0232 2721.8C39.3877 2718.99 47.2298 2722.38 49.7358 2728.96Z" fill="#FFF8F8" stroke="#F7D9DE" stroke-width="5"/>
<path d="M35.2464 2867.88C21.3991 2866.61 25.3089 2884.6 25.3089 2884.6C25.3089 2884.6 7.7814 2878.29 6.22287 2889.76C4.66434 2901.24 22.6412 2899.88 22.6412 2899.88C22.6412 2899.88 9.40576 2912.55 20.3978 2918.46C31.3899 2924.36 35.3168 2909.15 35.3168 2909.15C35.3168 2909.15 44.5964 2923.17 53.7562 2913.92C62.916 2904.66 47.2924 2900.37 47.2924 2900.37C47.2924 2900.37 64.2232 2894.65 61.2081 2885.06C58.193 2875.47 41.872 2883.77 41.872 2883.77C41.872 2883.77 49.0937 2869.16 35.2464 2867.88Z" stroke="#F7D9DE" stroke-width="5"/>
<path fill-rule="evenodd" clip-rule="evenodd" d="M35.4998 3055C31.699 3048.31 24.2178 3038.4 16.8574 3042.21C9.49691 3046.03 6.78079 3054.45 10.4018 3061.58C13.4125 3067.52 23.5134 3080.83 26.8332 3085.15C27.2045 3085.64 27.3903 3085.88 27.6389 3086.01C27.8556 3086.13 28.1084 3086.18 28.3537 3086.16C28.6346 3086.14 28.9025 3086 29.4388 3085.71C34.2316 3083.12 48.8831 3075.08 54.0515 3070.89C60.2678 3065.85 61.3394 3057.02 56.054 3050.57C50.7686 3044.12 41.6968 3050.44 35.4998 3055Z" stroke="#F7D9DE" stroke-width="5" stroke-linecap="round" stroke-linejoin="round"/>
<path d="M10.5383 2978.75C6.13731 2974.13 5.03277 2968.04 8.07121 2965.14C11.1096 2962.25 17.1405 2963.65 21.5414 2968.27C25.9424 2972.9 32.5497 2983.2 28.7306 2986.84C24.9116 2990.48 14.9392 2983.37 10.5383 2978.75Z" stroke="#F7D9DE" stroke-width="5"/>
<path d="M25.0737 2967.34C23.8687 2961.07 26.2317 2955.35 30.3518 2954.55C34.4719 2953.76 38.7887 2958.2 39.9938 2964.47C41.1988 2970.74 41.1873 2982.98 36.0087 2983.97C30.8302 2984.97 26.2788 2973.6 25.0737 2967.34Z" stroke="#F7D9DE" stroke-width="5"/>
<path d="M49.7358 2986.96C52.2418 2993.53 48.6497 3001.28 41.2852 3004.09C33.9207 3006.9 26.0786 3003.51 23.5726 2996.93C21.0667 2990.36 24.6587 2982.61 32.0232 2979.8C39.3877 2976.99 47.2298 2980.38 49.7358 2986.96Z" fill="#FFF8F8" stroke="#F7D9DE" stroke-width="5"/>
<path d="M35.2464 2085.88C21.3991 2084.61 25.3089 2102.6 25.3089 2102.6C25.3089 2102.6 7.7814 2096.29 6.22287 2107.76C4.66434 2119.24 22.6412 2117.88 22.6412 2117.88C22.6412 2117.88 9.40576 2130.55 20.3978 2136.46C31.3899 2142.36 35.3168 2127.15 35.3168 2127.15C35.3168 2127.15 44.5964 2141.17 53.7562 2131.92C62.916 2122.66 47.2924 2118.37 47.2924 2118.37C47.2924 2118.37 64.2232 2112.65 61.2081 2103.06C58.193 2093.47 41.872 2101.77 41.872 2101.77C41.872 2101.77 49.0937 2087.16 35.2464 2085.88Z" stroke="#F7D9DE" stroke-width="5"/>
<path fill-rule="evenodd" clip-rule="evenodd" d="M35.4998 2273C31.699 2266.31 24.2178 2256.4 16.8574 2260.21C9.49691 2264.03 6.78079 2272.45 10.4018 2279.58C13.4125 2285.52 23.5134 2298.83 26.8332 2303.15C27.2045 2303.64 27.3903 2303.88 27.6389 2304.01C27.8556 2304.13 28.1084 2304.18 28.3537 2304.16C28.6346 2304.14 28.9025 2304 29.4388 2303.71C34.2316 2301.12 48.8831 2293.08 54.0515 2288.89C60.2678 2283.85 61.3394 2275.02 56.054 2268.57C50.7686 2262.12 41.6968 2268.44 35.4998 2273Z" stroke="#F7D9DE" stroke-width="5" stroke-linecap="round" stroke-linejoin="round"/>
<path d="M10.5383 2196.75C6.13731 2192.13 5.03277 2186.04 8.07121 2183.14C11.1096 2180.25 17.1405 2181.65 21.5414 2186.27C25.9424 2190.9 32.5497 2201.2 28.7306 2204.84C24.9116 2208.48 14.9392 2201.37 10.5383 2196.75Z" stroke="#F7D9DE" stroke-width="5"/>
<path d="M25.0737 2185.34C23.8687 2179.07 26.2317 2173.35 30.3518 2172.55C34.4719 2171.76 38.7887 2176.2 39.9938 2182.47C41.1988 2188.74 41.1873 2200.98 36.0087 2201.97C30.8302 2202.97 26.2788 2191.6 25.0737 2185.34Z" stroke="#F7D9DE" stroke-width="5"/>
<path d="M49.7358 2204.96C52.2418 2211.53 48.6497 2219.28 41.2852 2222.09C33.9207 2224.9 26.0786 2221.51 23.5726 2214.93C21.0667 2208.36 24.6587 2200.61 32.0232 2197.8C39.3877 2194.99 47.2298 2198.38 49.7358 2204.96Z" fill="#FFF8F8" stroke="#F7D9DE" stroke-width="5"/>
<path d="M35.2464 2343.88C21.3991 2342.61 25.3089 2360.6 25.3089 2360.6C25.3089 2360.6 7.7814 2354.29 6.22287 2365.76C4.66434 2377.24 22.6412 2375.88 22.6412 2375.88C22.6412 2375.88 9.40576 2388.55 20.3978 2394.46C31.3899 2400.36 35.3168 2385.15 35.3168 2385.15C35.3168 2385.15 44.5964 2399.17 53.7562 2389.92C62.916 2380.66 47.2924 2376.37 47.2924 2376.37C47.2924 2376.37 64.2232 2370.65 61.2081 2361.06C58.193 2351.47 41.872 2359.77 41.872 2359.77C41.872 2359.77 49.0937 2345.16 35.2464 2343.88Z" stroke="#F7D9DE" stroke-width="5"/>
<path fill-rule="evenodd" clip-rule="evenodd" d="M35.4998 2531C31.699 2524.31 24.2178 2514.4 16.8574 2518.21C9.49691 2522.03 6.78079 2530.45 10.4018 2537.58C13.4125 2543.52 23.5134 2556.83 26.8332 2561.15C27.2045 2561.64 27.3903 2561.88 27.6389 2562.01C27.8556 2562.13 28.1084 2562.18 28.3537 2562.16C28.6346 2562.14 28.9025 2562 29.4388 2561.71C34.2316 2559.12 48.8831 2551.08 54.0515 2546.89C60.2678 2541.85 61.3394 2533.02 56.054 2526.57C50.7686 2520.12 41.6968 2526.44 35.4998 2531Z" stroke="#F7D9DE" stroke-width="5" stroke-linecap="round" stroke-linejoin="round"/>
<path d="M10.5383 2454.75C6.13731 2450.13 5.03277 2444.04 8.07121 2441.14C11.1096 2438.25 17.1405 2439.65 21.5414 2444.27C25.9424 2448.9 32.5497 2459.2 28.7306 2462.84C24.9116 2466.48 14.9392 2459.37 10.5383 2454.75Z" stroke="#F7D9DE" stroke-width="5"/>
<path d="M25.0737 2443.34C23.8687 2437.07 26.2317 2431.35 30.3518 2430.55C34.4719 2429.76 38.7887 2434.2 39.9938 2440.47C41.1988 2446.74 41.1873 2458.98 36.0087 2459.97C30.8302 2460.97 26.2788 2449.6 25.0737 2443.34Z" stroke="#F7D9DE" stroke-width="5"/>
<path d="M49.7358 2462.96C52.2418 2469.53 48.6497 2477.28 41.2852 2480.09C33.9207 2482.9 26.0786 2479.51 23.5726 2472.93C21.0667 2466.36 24.6587 2458.61 32.0232 2455.8C39.3877 2452.99 47.2298 2456.38 49.7358 2462.96Z" fill="#FFF8F8" stroke="#F7D9DE" stroke-width="5"/>
<path d="M35.2464 1561.88C21.3991 1560.61 25.3089 1578.6 25.3089 1578.6C25.3089 1578.6 7.7814 1572.29 6.22287 1583.76C4.66434 1595.24 22.6412 1593.88 22.6412 1593.88C22.6412 1593.88 9.40576 1606.55 20.3978 1612.46C31.3899 1618.36 35.3168 1603.15 35.3168 1603.15C35.3168 1603.15 44.5964 1617.17 53.7562 1607.92C62.916 1598.66 47.2924 1594.37 47.2924 1594.37C47.2924 1594.37 64.2232 1588.65 61.2081 1579.06C58.193 1569.47 41.872 1577.77 41.872 1577.77C41.872 1577.77 49.0937 1563.16 35.2464 1561.88Z" stroke="#F7D9DE" stroke-width="5"/>
<path fill-rule="evenodd" clip-rule="evenodd" d="M35.4998 1749C31.699 1742.31 24.2178 1732.4 16.8574 1736.21C9.49691 1740.03 6.78079 1748.45 10.4018 1755.58C13.4125 1761.52 23.5134 1774.83 26.8332 1779.15C27.2045 1779.64 27.3903 1779.88 27.6389 1780.01C27.8556 1780.13 28.1084 1780.18 28.3537 1780.16C28.6346 1780.14 28.9025 1780 29.4388 1779.71C34.2316 1777.12 48.8831 1769.08 54.0515 1764.89C60.2678 1759.85 61.3394 1751.02 56.054 1744.57C50.7686 1738.12 41.6968 1744.44 35.4998 1749Z" stroke="#F7D9DE" stroke-width="5" stroke-linecap="round" stroke-linejoin="round"/>
<path d="M10.5383 1672.75C6.13731 1668.13 5.03277 1662.04 8.07121 1659.14C11.1096 1656.25 17.1405 1657.65 21.5414 1662.27C25.9424 1666.9 32.5497 1677.2 28.7306 1680.84C24.9116 1684.48 14.9392 1677.37 10.5383 1672.75Z" stroke="#F7D9DE" stroke-width="5"/>
<path d="M25.0737 1661.34C23.8687 1655.07 26.2317 1649.35 30.3518 1648.55C34.4719 1647.76 38.7887 1652.2 39.9938 1658.47C41.1988 1664.74 41.1873 1676.98 36.0087 1677.97C30.8302 1678.97 26.2788 1667.6 25.0737 1661.34Z" stroke="#F7D9DE" stroke-width="5"/>
<path d="M49.7358 1680.96C52.2418 1687.53 48.6497 1695.28 41.2852 1698.09C33.9207 1700.9 26.0786 1697.51 23.5726 1690.93C21.0667 1684.36 24.6587 1676.61 32.0232 1673.8C39.3877 1670.99 47.2298 1674.38 49.7358 1680.96Z" fill="#FFF8F8" stroke="#F7D9DE" stroke-width="5"/>
<path d="M35.2464 1819.88C21.3991 1818.61 25.3089 1836.6 25.3089 1836.6C25.3089 1836.6 7.7814 1830.29 6.22287 1841.76C4.66434 1853.24 22.6412 1851.88 22.6412 1851.88C22.6412 1851.88 9.40576 1864.55 20.3978 1870.46C31.3899 1876.36 35.3168 1861.15 35.3168 1861.15C35.3168 1861.15 44.5964 1875.17 53.7562 1865.92C62.916 1856.66 47.2924 1852.37 47.2924 1852.37C47.2924 1852.37 64.2232 1846.65 61.2081 1837.06C58.193 1827.47 41.872 1835.77 41.872 1835.77C41.872 1835.77 49.0937 1821.16 35.2464 1819.88Z" stroke="#F7D9DE" stroke-width="5"/>
<path fill-rule="evenodd" clip-rule="evenodd" d="M35.4998 2007C31.699 2000.31 24.2178 1990.4 16.8574 1994.21C9.49691 1998.03 6.78079 2006.45 10.4018 2013.58C13.4125 2019.52 23.5134 2032.83 26.8332 2037.15C27.2045 2037.64 27.3903 2037.88 27.6389 2038.01C27.8556 2038.13 28.1084 2038.18 28.3537 2038.16C28.6346 2038.14 28.9025 2038 29.4388 2037.71C34.2316 2035.12 48.8831 2027.08 54.0515 2022.89C60.2678 2017.85 61.3394 2009.02 56.054 2002.57C50.7686 1996.12 41.6968 2002.44 35.4998 2007Z" stroke="#F7D9DE" stroke-width="5" stroke-linecap="round" stroke-linejoin="round"/>
<path d="M10.5383 1930.75C6.13731 1926.13 5.03277 1920.04 8.07121 1917.14C11.1096 1914.25 17.1405 1915.65 21.5414 1920.27C25.9424 1924.9 32.5497 1935.2 28.7306 1938.84C24.9116 1942.48 14.9392 1935.37 10.5383 1930.75Z" stroke="#F7D9DE" stroke-width="5"/>
<path d="M25.0737 1919.34C23.8687 1913.07 26.2317 1907.35 30.3518 1906.55C34.4719 1905.76 38.7887 1910.2 39.9938 1916.47C41.1988 1922.74 41.1873 1934.98 36.0087 1935.97C30.8302 1936.97 26.2788 1925.6 25.0737 1919.34Z" stroke="#F7D9DE" stroke-width="5"/>
<path d="M49.7358 1938.96C52.2418 1945.53 48.6497 1953.28 41.2852 1956.09C33.9207 1958.9 26.0786 1955.51 23.5726 1948.93C21.0667 1942.36 24.6587 1934.61 32.0232 1931.8C39.3877 1928.99 47.2298 1932.38 49.7358 1938.96Z" fill="#FFF8F8" stroke="#F7D9DE" stroke-width="5"/>
<path d="M35.2464 3133.88C21.3991 3132.61 25.3089 3150.6 25.3089 3150.6C25.3089 3150.6 7.7814 3144.29 6.22287 3155.76C4.66434 3167.24 22.6412 3165.88 22.6412 3165.88C22.6412 3165.88 9.40576 3178.55 20.3978 3184.46C31.3899 3190.36 35.3168 3175.15 35.3168 3175.15C35.3168 3175.15 44.5964 3189.17 53.7562 3179.92C62.916 3170.66 47.2924 3166.37 47.2924 3166.37C47.2924 3166.37 64.2232 3160.65 61.2081 3151.06C58.193 3141.47 41.872 3149.77 41.872 3149.77C41.872 3149.77 49.0937 3135.16 35.2464 3133.88Z" stroke="#F7D9DE" stroke-width="5"/>
<path fill-rule="evenodd" clip-rule="evenodd" d="M35.4998 3321C31.699 3314.31 24.2178 3304.4 16.8574 3308.21C9.49691 3312.03 6.78079 3320.45 10.4018 3327.58C13.4125 3333.52 23.5134 3346.83 26.8332 3351.15C27.2045 3351.64 27.3903 3351.88 27.6389 3352.01C27.8556 3352.13 28.1084 3352.18 28.3537 3352.16C28.6346 3352.14 28.9025 3352 29.4388 3351.71C34.2316 3349.12 48.8831 3341.08 54.0515 3336.89C60.2678 3331.85 61.3394 3323.02 56.054 3316.57C50.7686 3310.12 41.6968 3316.44 35.4998 3321Z" stroke="#F7D9DE" stroke-width="5" stroke-linecap="round" stroke-linejoin="round"/>
<path d="M10.5383 3244.75C6.13731 3240.13 5.03277 3234.04 8.07121 3231.14C11.1096 3228.25 17.1405 3229.65 21.5414 3234.27C25.9424 3238.9 32.5497 3249.2 28.7306 3252.84C24.9116 3256.48 14.9392 3249.37 10.5383 3244.75Z" stroke="#F7D9DE" stroke-width="5"/>
<path d="M25.0737 3233.34C23.8687 3227.07 26.2317 3221.35 30.3518 3220.55C34.4719 3219.76 38.7887 3224.2 39.9938 3230.47C41.1988 3236.74 41.1873 3248.98 36.0087 3249.97C30.8302 3250.97 26.2788 3239.6 25.0737 3233.34Z" stroke="#F7D9DE" stroke-width="5"/>
<path d="M49.7358 3252.96C52.2418 3259.53 48.6497 3267.28 41.2852 3270.09C33.9207 3272.9 26.0786 3269.51 23.5726 3262.93C21.0667 3256.36 24.6587 3248.61 32.0232 3245.8C39.3877 3242.99 47.2298 3246.38 49.7358 3252.96Z" fill="#FFF8F8" stroke="#F7D9DE" stroke-width="5"/>
<path d="M35.2464 3391.88C21.3991 3390.61 25.3089 3408.6 25.3089 3408.6C25.3089 3408.6 7.7814 3402.29 6.22287 3413.76C4.66434 3425.24 22.6412 3423.88 22.6412 3423.88C22.6412 3423.88 9.40576 3436.55 20.3978 3442.46C31.3899 3448.36 35.3168 3433.15 35.3168 3433.15C35.3168 3433.15 44.5964 3447.17 53.7562 3437.92C62.916 3428.66 47.2924 3424.37 47.2924 3424.37C47.2924 3424.37 64.2232 3418.65 61.2081 3409.06C58.193 3399.47 41.872 3407.77 41.872 3407.77C41.872 3407.77 49.0937 3393.16 35.2464 3391.88Z" stroke="#F7D9DE" stroke-width="5"/>
<path fill-rule="evenodd" clip-rule="evenodd" d="M35.4998 3579C31.699 3572.31 24.2178 3562.4 16.8574 3566.21C9.49691 3570.03 6.78079 3578.45 10.4018 3585.58C13.4125 3591.52 23.5134 3604.83 26.8332 3609.15C27.2045 3609.64 27.3903 3609.88 27.6389 3610.01C27.8556 3610.13 28.1084 3610.18 28.3537 3610.16C28.6346 3610.14 28.9025 3610 29.4388 3609.71C34.2316 3607.12 48.8831 3599.08 54.0515 3594.89C60.2678 3589.85 61.3394 3581.02 56.054 3574.57C50.7686 3568.12 41.6968 3574.44 35.4998 3579Z" stroke="#F7D9DE" stroke-width="5" stroke-linecap="round" stroke-linejoin="round"/>
<path d="M10.5383 3502.75C6.13731 3498.13 5.03277 3492.04 8.07121 3489.14C11.1096 3486.25 17.1405 3487.65 21.5414 3492.27C25.9424 3496.9 32.5497 3507.2 28.7306 3510.84C24.9116 3514.48 14.9392 3507.37 10.5383 3502.75Z" stroke="#F7D9DE" stroke-width="5"/>
<path d="M25.0737 3491.34C23.8687 3485.07 26.2317 3479.35 30.3518 3478.55C34.4719 3477.76 38.7887 3482.2 39.9938 3488.47C41.1988 3494.74 41.1873 3506.98 36.0087 3507.97C30.8302 3508.97 26.2788 3497.6 25.0737 3491.34Z" stroke="#F7D9DE" stroke-width="5"/>
<path d="M49.7358 3510.96C52.2418 3517.53 48.6497 3525.28 41.2852 3528.09C33.9207 3530.9 26.0786 3527.51 23.5726 3520.93C21.0667 3514.36 24.6587 3506.61 32.0232 3503.8C39.3877 3500.99 47.2298 3504.38 49.7358 3510.96Z" fill="#FFF8F8" stroke="#F7D9DE" stroke-width="5"/>
<path d="M35.2464 3649.88C21.3991 3648.61 25.3089 3666.6 25.3089 3666.6C25.3089 3666.6 7.7814 3660.29 6.22287 3671.76C4.66434 3683.24 22.6412 3681.88 22.6412 3681.88C22.6412 3681.88 9.40576 3694.55 20.3978 3700.46C31.3899 3706.36 35.3168 3691.15 35.3168 3691.15C35.3168 3691.15 44.5964 3705.17 53.7562 3695.92C62.916 3686.66 47.2924 3682.37 47.2924 3682.37C47.2924 3682.37 64.2232 3676.65 61.2081 3667.06C58.193 3657.47 41.872 3665.77 41.872 3665.77C41.872 3665.77 49.0937 3651.16 35.2464 3649.88Z" stroke="#F7D9DE" stroke-width="5"/>
<path fill-rule="evenodd" clip-rule="evenodd" d="M35.4998 3837C31.699 3830.31 24.2178 3820.4 16.8574 3824.21C9.49691 3828.03 6.78079 3836.45 10.4018 3843.58C13.4125 3849.52 23.5134 3862.83 26.8332 3867.15C27.2045 3867.64 27.3903 3867.88 27.6389 3868.01C27.8556 3868.13 28.1084 3868.18 28.3537 3868.16C28.6346 3868.14 28.9025 3868 29.4388 3867.71C34.2316 3865.12 48.8831 3857.08 54.0515 3852.89C60.2678 3847.85 61.3394 3839.02 56.054 3832.57C50.7686 3826.12 41.6968 3832.44 35.4998 3837Z" stroke="#F7D9DE" stroke-width="5" stroke-linecap="round" stroke-linejoin="round"/>
<path d="M10.5383 3760.75C6.13731 3756.13 5.03277 3750.04 8.07121 3747.14C11.1096 3744.25 17.1405 3745.65 21.5414 3750.27C25.9424 3754.9 32.5497 3765.2 28.7306 3768.84C24.9116 3772.48 14.9392 3765.37 10.5383 3760.75Z" stroke="#F7D9DE" stroke-width="5"/>
<path d="M25.0737 3749.34C23.8687 3743.07 26.2317 3737.35 30.3518 3736.55C34.4719 3735.76 38.7887 3740.2 39.9938 3746.47C41.1988 3752.74 41.1873 3764.98 36.0087 3765.97C30.8302 3766.97 26.2788 3755.6 25.0737 3749.34Z" stroke="#F7D9DE" stroke-width="5"/>
<path d="M49.7358 3768.96C52.2418 3775.53 48.6497 3783.28 41.2852 3786.09C33.9207 3788.9 26.0786 3785.51 23.5726 3778.93C21.0667 3772.36 24.6587 3764.61 32.0232 3761.8C39.3877 3758.99 47.2298 3762.38 49.7358 3768.96Z" fill="#FFF8F8" stroke="#F7D9DE" stroke-width="5"/>
<path d="M35.2464 3907.88C21.3991 3906.61 25.3089 3924.6 25.3089 3924.6C25.3089 3924.6 7.7814 3918.29 6.22287 3929.76C4.66434 3941.24 22.6412 3939.88 22.6412 3939.88C22.6412 3939.88 9.40576 3952.55 20.3978 3958.46C31.3899 3964.36 35.3168 3949.15 35.3168 3949.15C35.3168 3949.15 44.5964 3963.17 53.7562 3953.92C62.916 3944.66 47.2924 3940.37 47.2924 3940.37C47.2924 3940.37 64.2232 3934.65 61.2081 3925.06C58.193 3915.47 41.872 3923.77 41.872 3923.77C41.872 3923.77 49.0937 3909.16 35.2464 3907.88Z" stroke="#F7D9DE" stroke-width="5"/>
<path fill-rule="evenodd" clip-rule="evenodd" d="M35.4998 4095C31.699 4088.31 24.2178 4078.4 16.8574 4082.21C9.49691 4086.03 6.78079 4094.45 10.4018 4101.58C13.4125 4107.52 23.5134 4120.83 26.8332 4125.15C27.2045 4125.64 27.3903 4125.88 27.6389 4126.01C27.8556 4126.13 28.1084 4126.18 28.3537 4126.16C28.6346 4126.14 28.9025 4126 29.4388 4125.71C34.2316 4123.12 48.8831 4115.08 54.0515 4110.89C60.2678 4105.85 61.3394 4097.02 56.054 4090.57C50.7686 4084.12 41.6968 4090.44 35.4998 4095Z" stroke="#F7D9DE" stroke-width="5" stroke-linecap="round" stroke-linejoin="round"/>
<path d="M10.5383 4018.75C6.13731 4014.13 5.03277 4008.04 8.07121 4005.14C11.1096 4002.25 17.1405 4003.65 21.5414 4008.27C25.9424 4012.9 32.5497 4023.2 28.7306 4026.84C24.9116 4030.48 14.9392 4023.37 10.5383 4018.75Z" stroke="#F7D9DE" stroke-width="5"/>
<path d="M25.0737 4007.34C23.8687 4001.07 26.2317 3995.35 30.3518 3994.55C34.4719 3993.76 38.7887 3998.2 39.9938 4004.47C41.1988 4010.74 41.1873 4022.98 36.0087 4023.97C30.8302 4024.97 26.2788 4013.6 25.0737 4007.34Z" stroke="#F7D9DE" stroke-width="5"/>
<path d="M49.7358 4026.96C52.2418 4033.53 48.6497 4041.28 41.2852 4044.09C33.9207 4046.9 26.0786 4043.51 23.5726 4036.93C21.0667 4030.36 24.6587 4022.61 32.0232 4019.8C39.3877 4016.99 47.2298 4020.38 49.7358 4026.96Z" fill="#FFF8F8" stroke="#F7D9DE" stroke-width="5"/>
<path d="M35.2464 4173.88C21.3991 4172.61 25.3089 4190.6 25.3089 4190.6C25.3089 4190.6 7.7814 4184.29 6.22287 4195.76C4.66434 4207.24 22.6412 4205.88 22.6412 4205.88C22.6412 4205.88 9.40576 4218.55 20.3978 4224.46C31.3899 4230.36 35.3168 4215.15 35.3168 4215.15C35.3168 4215.15 44.5964 4229.17 53.7562 4219.92C62.916 4210.66 47.2924 4206.37 47.2924 4206.37C47.2924 4206.37 64.2232 4200.65 61.2081 4191.06C58.193 4181.47 41.872 4189.77 41.872 4189.77C41.872 4189.77 49.0937 4175.16 35.2464 4173.88Z" stroke="#F7D9DE" stroke-width="5"/>
<path fill-rule="evenodd" clip-rule="evenodd" d="M35.4998 4361C31.699 4354.31 24.2178 4344.4 16.8574 4348.21C9.49691 4352.03 6.78079 4360.45 10.4018 4367.58C13.4125 4373.52 23.5134 4386.83 26.8332 4391.15C27.2045 4391.64 27.3903 4391.88 27.6389 4392.01C27.8556 4392.13 28.1084 4392.18 28.3537 4392.16C28.6346 4392.14 28.9025 4392 29.4388 4391.71C34.2316 4389.12 48.8831 4381.08 54.0515 4376.89C60.2678 4371.85 61.3394 4363.02 56.054 4356.57C50.7686 4350.12 41.6968 4356.44 35.4998 4361Z" stroke="#F7D9DE" stroke-width="5" stroke-linecap="round" stroke-linejoin="round"/>
<path d="M10.5383 4284.75C6.13731 4280.13 5.03277 4274.04 8.07121 4271.14C11.1096 4268.25 17.1405 4269.65 21.5414 4274.27C25.9424 4278.9 32.5497 4289.2 28.7306 4292.84C24.9116 4296.48 14.9392 4289.37 10.5383 4284.75Z" stroke="#F7D9DE" stroke-width="5"/>
<path d="M25.0737 4273.34C23.8687 4267.07 26.2317 4261.35 30.3518 4260.55C34.4719 4259.76 38.7887 4264.2 39.9938 4270.47C41.1988 4276.74 41.1873 4288.98 36.0087 4289.97C30.8302 4290.97 26.2788 4279.6 25.0737 4273.34Z" stroke="#F7D9DE" stroke-width="5"/>
<path d="M49.7358 4292.96C52.2418 4299.53 48.6497 4307.28 41.2852 4310.09C33.9207 4312.9 26.0786 4309.51 23.5726 4302.93C21.0667 4296.36 24.6587 4288.61 32.0232 4285.8C39.3877 4282.99 47.2298 4286.38 49.7358 4292.96Z" fill="#FFF8F8" stroke="#F7D9DE" stroke-width="5"/>
<path d="M35.2464 4431.88C21.3991 4430.61 25.3089 4448.6 25.3089 4448.6C25.3089 4448.6 7.7814 4442.29 6.22287 4453.76C4.66434 4465.24 22.6412 4463.88 22.6412 4463.88C22.6412 4463.88 9.40576 4476.55 20.3978 4482.46C31.3899 4488.36 35.3168 4473.15 35.3168 4473.15C35.3168 4473.15 44.5964 4487.17 53.7562 4477.92C62.916 4468.66 47.2924 4464.37 47.2924 4464.37C47.2924 4464.37 64.2232 4458.65 61.2081 4449.06C58.193 4439.47 41.872 4447.77 41.872 4447.77C41.872 4447.77 49.0937 4433.16 35.2464 4431.88Z" stroke="#F7D9DE" stroke-width="5"/>
</svg>
