<svg width="66" height="4506" viewBox="0 0 66 4506" fill="none" xmlns="http://www.w3.org/2000/svg">
<path d="M30.0622 5.88258C43.9095 4.60564 39.9996 22.6022 39.9996 22.6022C39.9996 22.6022 57.5272 16.2878 59.0857 27.7634C60.6443 39.239 42.6674 37.8785 42.6674 37.8785C42.6674 37.8785 55.9028 50.5535 44.9108 56.4573C33.9187 62.3612 29.9918 47.1547 29.9918 47.1547C29.9918 47.1547 20.7122 61.1737 11.5524 51.9165C2.3926 42.6594 18.0162 38.3692 18.0162 38.3692C18.0162 38.3692 1.08536 32.6515 4.10049 23.0601C7.11562 13.4687 23.4366 21.7707 23.4366 21.7707C23.4366 21.7707 16.2149 7.15953 30.0622 5.88258Z" stroke="#F7D9DE" stroke-width="5"/>
<path fill-rule="evenodd" clip-rule="evenodd" d="M29.8088 193C33.6095 186.312 41.0907 176.401 48.4512 180.215C55.8117 184.028 58.5278 192.448 54.9068 199.585C51.8961 205.519 41.7952 218.834 38.4754 223.154C38.1041 223.637 37.9183 223.879 37.6697 224.011C37.453 224.126 37.2002 224.18 36.9549 224.163C36.674 224.144 36.4061 223.999 35.8698 223.709C31.077 221.118 16.4255 213.078 11.257 208.887C5.04084 203.846 3.96921 195.02 9.25462 188.568C14.54 182.116 23.6117 188.443 29.8088 193Z" stroke="#F7D9DE" stroke-width="5" stroke-linecap="round" stroke-linejoin="round"/>
<path d="M54.7703 116.752C59.1713 112.13 60.2758 106.037 57.2374 103.144C54.199 100.251 48.1681 101.653 43.7672 106.274C39.3662 110.896 32.7589 121.205 36.578 124.841C40.397 128.477 50.3694 121.373 54.7703 116.752Z" stroke="#F7D9DE" stroke-width="5"/>
<path d="M40.2349 105.337C41.4399 99.0696 39.0769 93.3468 34.9568 92.5546C30.8367 91.7624 26.5199 96.2008 25.3148 102.468C24.1097 108.735 24.1213 120.979 29.2999 121.975C34.4784 122.971 39.0298 111.604 40.2349 105.337Z" stroke="#F7D9DE" stroke-width="5"/>
<path d="M15.5728 124.958C13.0668 131.531 16.6589 139.284 24.0234 142.092C31.3879 144.9 39.23 141.505 41.7359 134.932C44.2419 128.359 40.6498 120.605 33.2854 117.798C25.9209 114.99 18.0788 118.384 15.5728 124.958Z" fill="#FFF8F8" stroke="#F7D9DE" stroke-width="5"/>
<path d="M30.0622 263.883C43.9095 262.606 39.9996 280.602 39.9996 280.602C39.9996 280.602 57.5272 274.288 59.0857 285.763C60.6443 297.239 42.6674 295.878 42.6674 295.878C42.6674 295.878 55.9028 308.553 44.9108 314.457C33.9187 320.361 29.9918 305.155 29.9918 305.155C29.9918 305.155 20.7122 319.174 11.5524 309.917C2.3926 300.659 18.0162 296.369 18.0162 296.369C18.0162 296.369 1.08536 290.651 4.10049 281.06C7.11562 271.469 23.4366 279.771 23.4366 279.771C23.4366 279.771 16.2149 265.16 30.0622 263.883Z" stroke="#F7D9DE" stroke-width="5"/>
<path fill-rule="evenodd" clip-rule="evenodd" d="M29.8088 451C33.6095 444.312 41.0907 434.401 48.4512 438.215C55.8117 442.028 58.5278 450.448 54.9068 457.585C51.8961 463.519 41.7952 476.834 38.4754 481.154C38.1041 481.637 37.9183 481.879 37.6697 482.011C37.453 482.126 37.2002 482.18 36.9549 482.163C36.674 482.144 36.4061 481.999 35.8698 481.709C31.077 479.118 16.4255 471.078 11.257 466.887C5.04084 461.846 3.96921 453.02 9.25462 446.568C14.54 440.116 23.6117 446.443 29.8088 451Z" stroke="#F7D9DE" stroke-width="5" stroke-linecap="round" stroke-linejoin="round"/>
<path d="M54.7703 374.752C59.1713 370.13 60.2758 364.037 57.2374 361.144C54.199 358.251 48.1681 359.653 43.7672 364.274C39.3662 368.896 32.7589 379.205 36.578 382.841C40.397 386.477 50.3694 379.373 54.7703 374.752Z" stroke="#F7D9DE" stroke-width="5"/>
<path d="M40.2349 363.337C41.4399 357.07 39.0769 351.347 34.9568 350.555C30.8367 349.762 26.5199 354.201 25.3148 360.468C24.1097 366.735 24.1213 378.979 29.2999 379.975C34.4784 380.971 39.0298 369.604 40.2349 363.337Z" stroke="#F7D9DE" stroke-width="5"/>
<path d="M15.5728 382.958C13.0668 389.531 16.6589 397.284 24.0234 400.092C31.3879 402.9 39.23 399.505 41.7359 392.932C44.2419 386.359 40.6498 378.605 33.2854 375.798C25.9209 372.99 18.0788 376.384 15.5728 382.958Z" fill="#FFF8F8" stroke="#F7D9DE" stroke-width="5"/>
<path d="M30.0622 521.883C43.9095 520.606 39.9996 538.602 39.9996 538.602C39.9996 538.602 57.5272 532.288 59.0857 543.763C60.6443 555.239 42.6674 553.878 42.6674 553.878C42.6674 553.878 55.9028 566.553 44.9108 572.457C33.9187 578.361 29.9918 563.155 29.9918 563.155C29.9918 563.155 20.7122 577.174 11.5524 567.917C2.3926 558.659 18.0162 554.369 18.0162 554.369C18.0162 554.369 1.08536 548.651 4.10049 539.06C7.11562 529.469 23.4366 537.771 23.4366 537.771C23.4366 537.771 16.2149 523.16 30.0622 521.883Z" stroke="#F7D9DE" stroke-width="5"/>
<path fill-rule="evenodd" clip-rule="evenodd" d="M29.8088 709C33.6095 702.312 41.0907 692.401 48.4512 696.215C55.8117 700.028 58.5278 708.448 54.9068 715.585C51.8961 721.519 41.7952 734.834 38.4754 739.154C38.1041 739.637 37.9183 739.879 37.6697 740.011C37.453 740.126 37.2002 740.18 36.9549 740.163C36.674 740.144 36.4061 739.999 35.8698 739.709C31.077 737.118 16.4255 729.078 11.257 724.887C5.04084 719.846 3.96921 711.02 9.25462 704.568C14.54 698.116 23.6117 704.443 29.8088 709Z" stroke="#F7D9DE" stroke-width="5" stroke-linecap="round" stroke-linejoin="round"/>
<path d="M54.7703 632.752C59.1713 628.13 60.2758 622.037 57.2374 619.144C54.199 616.251 48.1681 617.653 43.7672 622.274C39.3662 626.896 32.7589 637.205 36.578 640.841C40.397 644.477 50.3694 637.373 54.7703 632.752Z" stroke="#F7D9DE" stroke-width="5"/>
<path d="M40.2349 621.337C41.4399 615.07 39.0769 609.347 34.9568 608.555C30.8367 607.762 26.5199 612.201 25.3148 618.468C24.1097 624.735 24.1213 636.979 29.2999 637.975C34.4784 638.971 39.0298 627.604 40.2349 621.337Z" stroke="#F7D9DE" stroke-width="5"/>
<path d="M15.5728 640.958C13.0668 647.531 16.6589 655.284 24.0234 658.092C31.3879 660.9 39.23 657.505 41.7359 650.932C44.2419 644.359 40.6498 636.605 33.2854 633.798C25.9209 630.99 18.0788 634.384 15.5728 640.958Z" fill="#FFF8F8" stroke="#F7D9DE" stroke-width="5"/>
<path d="M30.0622 779.883C43.9095 778.606 39.9996 796.602 39.9996 796.602C39.9996 796.602 57.5272 790.288 59.0857 801.763C60.6443 813.239 42.6674 811.878 42.6674 811.878C42.6674 811.878 55.9028 824.553 44.9108 830.457C33.9187 836.361 29.9918 821.155 29.9918 821.155C29.9918 821.155 20.7122 835.174 11.5524 825.917C2.3926 816.659 18.0162 812.369 18.0162 812.369C18.0162 812.369 1.08536 806.651 4.10049 797.06C7.11562 787.469 23.4366 795.771 23.4366 795.771C23.4366 795.771 16.2149 781.16 30.0622 779.883Z" stroke="#F7D9DE" stroke-width="5"/>
<path fill-rule="evenodd" clip-rule="evenodd" d="M29.8088 967C33.6095 960.312 41.0907 950.401 48.4512 954.215C55.8117 958.028 58.5278 966.448 54.9068 973.585C51.8961 979.519 41.7952 992.834 38.4754 997.154C38.1041 997.637 37.9183 997.879 37.6697 998.011C37.453 998.126 37.2002 998.18 36.9549 998.163C36.674 998.144 36.4061 997.999 35.8698 997.709C31.077 995.118 16.4255 987.078 11.257 982.887C5.04084 977.846 3.96921 969.02 9.25462 962.568C14.54 956.116 23.6117 962.443 29.8088 967Z" stroke="#F7D9DE" stroke-width="5" stroke-linecap="round" stroke-linejoin="round"/>
<path d="M54.7703 890.752C59.1713 886.13 60.2758 880.037 57.2374 877.144C54.199 874.251 48.1681 875.653 43.7672 880.274C39.3662 884.896 32.7589 895.205 36.578 898.841C40.397 902.477 50.3694 895.373 54.7703 890.752Z" stroke="#F7D9DE" stroke-width="5"/>
<path d="M40.2349 879.337C41.4399 873.07 39.0769 867.347 34.9568 866.555C30.8367 865.762 26.5199 870.201 25.3148 876.468C24.1097 882.735 24.1213 894.979 29.2999 895.975C34.4784 896.971 39.0298 885.604 40.2349 879.337Z" stroke="#F7D9DE" stroke-width="5"/>
<path d="M15.5728 898.958C13.0668 905.531 16.6589 913.284 24.0234 916.092C31.3879 918.9 39.23 915.505 41.7359 908.932C44.2419 902.359 40.6498 894.605 33.2854 891.798C25.9209 888.99 18.0788 892.384 15.5728 898.958Z" fill="#FFF8F8" stroke="#F7D9DE" stroke-width="5"/>
<path d="M30.0622 1045.88C43.9095 1044.61 39.9996 1062.6 39.9996 1062.6C39.9996 1062.6 57.5272 1056.29 59.0857 1067.76C60.6443 1079.24 42.6674 1077.88 42.6674 1077.88C42.6674 1077.88 55.9028 1090.55 44.9108 1096.46C33.9187 1102.36 29.9918 1087.15 29.9918 1087.15C29.9918 1087.15 20.7122 1101.17 11.5524 1091.92C2.3926 1082.66 18.0162 1078.37 18.0162 1078.37C18.0162 1078.37 1.08536 1072.65 4.10049 1063.06C7.11562 1053.47 23.4366 1061.77 23.4366 1061.77C23.4366 1061.77 16.2149 1047.16 30.0622 1045.88Z" stroke="#F7D9DE" stroke-width="5"/>
<path fill-rule="evenodd" clip-rule="evenodd" d="M29.8088 1233C33.6095 1226.31 41.0907 1216.4 48.4512 1220.21C55.8117 1224.03 58.5278 1232.45 54.9068 1239.58C51.8961 1245.52 41.7952 1258.83 38.4754 1263.15C38.1041 1263.64 37.9183 1263.88 37.6697 1264.01C37.453 1264.13 37.2002 1264.18 36.9549 1264.16C36.674 1264.14 36.4061 1264 35.8698 1263.71C31.077 1261.12 16.4255 1253.08 11.257 1248.89C5.04084 1243.85 3.96921 1235.02 9.25462 1228.57C14.54 1222.12 23.6117 1228.44 29.8088 1233Z" stroke="#F7D9DE" stroke-width="5" stroke-linecap="round" stroke-linejoin="round"/>
<path d="M54.7703 1156.75C59.1713 1152.13 60.2758 1146.04 57.2374 1143.14C54.199 1140.25 48.1681 1141.65 43.7672 1146.27C39.3662 1150.9 32.7589 1161.2 36.578 1164.84C40.397 1168.48 50.3694 1161.37 54.7703 1156.75Z" stroke="#F7D9DE" stroke-width="5"/>
<path d="M40.2349 1145.34C41.4399 1139.07 39.0769 1133.35 34.9568 1132.55C30.8367 1131.76 26.5199 1136.2 25.3148 1142.47C24.1097 1148.74 24.1213 1160.98 29.2999 1161.97C34.4784 1162.97 39.0298 1151.6 40.2349 1145.34Z" stroke="#F7D9DE" stroke-width="5"/>
<path d="M15.5728 1164.96C13.0668 1171.53 16.6589 1179.28 24.0234 1182.09C31.3879 1184.9 39.23 1181.51 41.7359 1174.93C44.2419 1168.36 40.6498 1160.61 33.2854 1157.8C25.9209 1154.99 18.0788 1158.38 15.5728 1164.96Z" fill="#FFF8F8" stroke="#F7D9DE" stroke-width="5"/>
<path d="M30.0622 1303.88C43.9095 1302.61 39.9996 1320.6 39.9996 1320.6C39.9996 1320.6 57.5272 1314.29 59.0857 1325.76C60.6443 1337.24 42.6674 1335.88 42.6674 1335.88C42.6674 1335.88 55.9028 1348.55 44.9108 1354.46C33.9187 1360.36 29.9918 1345.15 29.9918 1345.15C29.9918 1345.15 20.7122 1359.17 11.5524 1349.92C2.3926 1340.66 18.0162 1336.37 18.0162 1336.37C18.0162 1336.37 1.08536 1330.65 4.10049 1321.06C7.11562 1311.47 23.4366 1319.77 23.4366 1319.77C23.4366 1319.77 16.2149 1305.16 30.0622 1303.88Z" stroke="#F7D9DE" stroke-width="5"/>
<path fill-rule="evenodd" clip-rule="evenodd" d="M29.8088 1491C33.6095 1484.31 41.0907 1474.4 48.4512 1478.21C55.8117 1482.03 58.5278 1490.45 54.9068 1497.58C51.8961 1503.52 41.7952 1516.83 38.4754 1521.15C38.1041 1521.64 37.9183 1521.88 37.6697 1522.01C37.453 1522.13 37.2002 1522.18 36.9549 1522.16C36.674 1522.14 36.4061 1522 35.8698 1521.71C31.077 1519.12 16.4255 1511.08 11.257 1506.89C5.04084 1501.85 3.96921 1493.02 9.25462 1486.57C14.54 1480.12 23.6117 1486.44 29.8088 1491Z" stroke="#F7D9DE" stroke-width="5" stroke-linecap="round" stroke-linejoin="round"/>
<path d="M54.7703 1414.75C59.1713 1410.13 60.2758 1404.04 57.2374 1401.14C54.199 1398.25 48.1681 1399.65 43.7672 1404.27C39.3662 1408.9 32.7589 1419.2 36.578 1422.84C40.397 1426.48 50.3694 1419.37 54.7703 1414.75Z" stroke="#F7D9DE" stroke-width="5"/>
<path d="M40.2349 1403.34C41.4399 1397.07 39.0769 1391.35 34.9568 1390.55C30.8367 1389.76 26.5199 1394.2 25.3148 1400.47C24.1097 1406.74 24.1213 1418.98 29.2999 1419.97C34.4784 1420.97 39.0298 1409.6 40.2349 1403.34Z" stroke="#F7D9DE" stroke-width="5"/>
<path d="M15.5728 1422.96C13.0668 1429.53 16.6589 1437.28 24.0234 1440.09C31.3879 1442.9 39.23 1439.51 41.7359 1432.93C44.2419 1426.36 40.6498 1418.61 33.2854 1415.8C25.9209 1412.99 18.0788 1416.38 15.5728 1422.96Z" fill="#FFF8F8" stroke="#F7D9DE" stroke-width="5"/>
<path d="M30.0622 2609.88C43.9095 2608.61 39.9996 2626.6 39.9996 2626.6C39.9996 2626.6 57.5272 2620.29 59.0857 2631.76C60.6443 2643.24 42.6674 2641.88 42.6674 2641.88C42.6674 2641.88 55.9028 2654.55 44.9108 2660.46C33.9187 2666.36 29.9918 2651.15 29.9918 2651.15C29.9918 2651.15 20.7122 2665.17 11.5524 2655.92C2.3926 2646.66 18.0162 2642.37 18.0162 2642.37C18.0162 2642.37 1.08536 2636.65 4.10049 2627.06C7.11562 2617.47 23.4366 2625.77 23.4366 2625.77C23.4366 2625.77 16.2149 2611.16 30.0622 2609.88Z" stroke="#F7D9DE" stroke-width="5"/>
<path fill-rule="evenodd" clip-rule="evenodd" d="M29.8088 2797C33.6095 2790.31 41.0907 2780.4 48.4512 2784.21C55.8117 2788.03 58.5278 2796.45 54.9068 2803.58C51.8961 2809.52 41.7952 2822.83 38.4754 2827.15C38.1041 2827.64 37.9183 2827.88 37.6697 2828.01C37.453 2828.13 37.2002 2828.18 36.9549 2828.16C36.674 2828.14 36.4061 2828 35.8698 2827.71C31.077 2825.12 16.4255 2817.08 11.257 2812.89C5.04084 2807.85 3.96921 2799.02 9.25462 2792.57C14.54 2786.12 23.6117 2792.44 29.8088 2797Z" stroke="#F7D9DE" stroke-width="5" stroke-linecap="round" stroke-linejoin="round"/>
<path d="M54.7703 2720.75C59.1713 2716.13 60.2758 2710.04 57.2374 2707.14C54.199 2704.25 48.1681 2705.65 43.7672 2710.27C39.3662 2714.9 32.7589 2725.2 36.578 2728.84C40.397 2732.48 50.3694 2725.37 54.7703 2720.75Z" stroke="#F7D9DE" stroke-width="5"/>
<path d="M40.2349 2709.34C41.4399 2703.07 39.0769 2697.35 34.9568 2696.55C30.8367 2695.76 26.5199 2700.2 25.3148 2706.47C24.1097 2712.74 24.1213 2724.98 29.2999 2725.97C34.4784 2726.97 39.0298 2715.6 40.2349 2709.34Z" stroke="#F7D9DE" stroke-width="5"/>
<path d="M15.5728 2728.96C13.0668 2735.53 16.6589 2743.28 24.0234 2746.09C31.3879 2748.9 39.23 2745.51 41.7359 2738.93C44.2419 2732.36 40.6498 2724.61 33.2854 2721.8C25.9209 2718.99 18.0788 2722.38 15.5728 2728.96Z" fill="#FFF8F8" stroke="#F7D9DE" stroke-width="5"/>
<path d="M30.0622 2867.88C43.9095 2866.61 39.9996 2884.6 39.9996 2884.6C39.9996 2884.6 57.5272 2878.29 59.0857 2889.76C60.6443 2901.24 42.6674 2899.88 42.6674 2899.88C42.6674 2899.88 55.9028 2912.55 44.9108 2918.46C33.9187 2924.36 29.9918 2909.15 29.9918 2909.15C29.9918 2909.15 20.7122 2923.17 11.5524 2913.92C2.3926 2904.66 18.0162 2900.37 18.0162 2900.37C18.0162 2900.37 1.08536 2894.65 4.10049 2885.06C7.11562 2875.47 23.4366 2883.77 23.4366 2883.77C23.4366 2883.77 16.2149 2869.16 30.0622 2867.88Z" stroke="#F7D9DE" stroke-width="5"/>
<path fill-rule="evenodd" clip-rule="evenodd" d="M29.8088 3055C33.6095 3048.31 41.0907 3038.4 48.4512 3042.21C55.8117 3046.03 58.5278 3054.45 54.9068 3061.58C51.8961 3067.52 41.7952 3080.83 38.4754 3085.15C38.1041 3085.64 37.9183 3085.88 37.6697 3086.01C37.453 3086.13 37.2002 3086.18 36.9549 3086.16C36.674 3086.14 36.4061 3086 35.8698 3085.71C31.077 3083.12 16.4255 3075.08 11.257 3070.89C5.04084 3065.85 3.96921 3057.02 9.25462 3050.57C14.54 3044.12 23.6117 3050.44 29.8088 3055Z" stroke="#F7D9DE" stroke-width="5" stroke-linecap="round" stroke-linejoin="round"/>
<path d="M54.7703 2978.75C59.1713 2974.13 60.2758 2968.04 57.2374 2965.14C54.199 2962.25 48.1681 2963.65 43.7672 2968.27C39.3662 2972.9 32.7589 2983.2 36.578 2986.84C40.397 2990.48 50.3694 2983.37 54.7703 2978.75Z" stroke="#F7D9DE" stroke-width="5"/>
<path d="M40.2349 2967.34C41.4399 2961.07 39.0769 2955.35 34.9568 2954.55C30.8367 2953.76 26.5199 2958.2 25.3148 2964.47C24.1097 2970.74 24.1213 2982.98 29.2999 2983.97C34.4784 2984.97 39.0298 2973.6 40.2349 2967.34Z" stroke="#F7D9DE" stroke-width="5"/>
<path d="M15.5728 2986.96C13.0668 2993.53 16.6589 3001.28 24.0234 3004.09C31.3879 3006.9 39.23 3003.51 41.7359 2996.93C44.2419 2990.36 40.6498 2982.61 33.2854 2979.8C25.9209 2976.99 18.0788 2980.38 15.5728 2986.96Z" fill="#FFF8F8" stroke="#F7D9DE" stroke-width="5"/>
<path d="M30.0622 2085.88C43.9095 2084.61 39.9996 2102.6 39.9996 2102.6C39.9996 2102.6 57.5272 2096.29 59.0857 2107.76C60.6443 2119.24 42.6674 2117.88 42.6674 2117.88C42.6674 2117.88 55.9028 2130.55 44.9108 2136.46C33.9187 2142.36 29.9918 2127.15 29.9918 2127.15C29.9918 2127.15 20.7122 2141.17 11.5524 2131.92C2.3926 2122.66 18.0162 2118.37 18.0162 2118.37C18.0162 2118.37 1.08536 2112.65 4.10049 2103.06C7.11562 2093.47 23.4366 2101.77 23.4366 2101.77C23.4366 2101.77 16.2149 2087.16 30.0622 2085.88Z" stroke="#F7D9DE" stroke-width="5"/>
<path fill-rule="evenodd" clip-rule="evenodd" d="M29.8088 2273C33.6095 2266.31 41.0907 2256.4 48.4512 2260.21C55.8117 2264.03 58.5278 2272.45 54.9068 2279.58C51.8961 2285.52 41.7952 2298.83 38.4754 2303.15C38.1041 2303.64 37.9183 2303.88 37.6697 2304.01C37.453 2304.13 37.2002 2304.18 36.9549 2304.16C36.674 2304.14 36.4061 2304 35.8698 2303.71C31.077 2301.12 16.4255 2293.08 11.257 2288.89C5.04084 2283.85 3.96921 2275.02 9.25462 2268.57C14.54 2262.12 23.6117 2268.44 29.8088 2273Z" stroke="#F7D9DE" stroke-width="5" stroke-linecap="round" stroke-linejoin="round"/>
<path d="M54.7703 2196.75C59.1713 2192.13 60.2758 2186.04 57.2374 2183.14C54.199 2180.25 48.1681 2181.65 43.7672 2186.27C39.3662 2190.9 32.7589 2201.2 36.578 2204.84C40.397 2208.48 50.3694 2201.37 54.7703 2196.75Z" stroke="#F7D9DE" stroke-width="5"/>
<path d="M40.2349 2185.34C41.4399 2179.07 39.0769 2173.35 34.9568 2172.55C30.8367 2171.76 26.5199 2176.2 25.3148 2182.47C24.1097 2188.74 24.1213 2200.98 29.2999 2201.97C34.4784 2202.97 39.0298 2191.6 40.2349 2185.34Z" stroke="#F7D9DE" stroke-width="5"/>
<path d="M15.5728 2204.96C13.0668 2211.53 16.6589 2219.28 24.0234 2222.09C31.3879 2224.9 39.23 2221.51 41.7359 2214.93C44.2419 2208.36 40.6498 2200.61 33.2854 2197.8C25.9209 2194.99 18.0788 2198.38 15.5728 2204.96Z" fill="#FFF8F8" stroke="#F7D9DE" stroke-width="5"/>
<path d="M30.0622 2343.88C43.9095 2342.61 39.9996 2360.6 39.9996 2360.6C39.9996 2360.6 57.5272 2354.29 59.0857 2365.76C60.6443 2377.24 42.6674 2375.88 42.6674 2375.88C42.6674 2375.88 55.9028 2388.55 44.9108 2394.46C33.9187 2400.36 29.9918 2385.15 29.9918 2385.15C29.9918 2385.15 20.7122 2399.17 11.5524 2389.92C2.3926 2380.66 18.0162 2376.37 18.0162 2376.37C18.0162 2376.37 1.08536 2370.65 4.10049 2361.06C7.11562 2351.47 23.4366 2359.77 23.4366 2359.77C23.4366 2359.77 16.2149 2345.16 30.0622 2343.88Z" stroke="#F7D9DE" stroke-width="5"/>
<path fill-rule="evenodd" clip-rule="evenodd" d="M29.8088 2531C33.6095 2524.31 41.0907 2514.4 48.4512 2518.21C55.8117 2522.03 58.5278 2530.45 54.9068 2537.58C51.8961 2543.52 41.7952 2556.83 38.4754 2561.15C38.1041 2561.64 37.9183 2561.88 37.6697 2562.01C37.453 2562.13 37.2002 2562.18 36.9549 2562.16C36.674 2562.14 36.4061 2562 35.8698 2561.71C31.077 2559.12 16.4255 2551.08 11.257 2546.89C5.04084 2541.85 3.96921 2533.02 9.25462 2526.57C14.54 2520.12 23.6117 2526.44 29.8088 2531Z" stroke="#F7D9DE" stroke-width="5" stroke-linecap="round" stroke-linejoin="round"/>
<path d="M54.7703 2454.75C59.1713 2450.13 60.2758 2444.04 57.2374 2441.14C54.199 2438.25 48.1681 2439.65 43.7672 2444.27C39.3662 2448.9 32.7589 2459.2 36.578 2462.84C40.397 2466.48 50.3694 2459.37 54.7703 2454.75Z" stroke="#F7D9DE" stroke-width="5"/>
<path d="M40.2349 2443.34C41.4399 2437.07 39.0769 2431.35 34.9568 2430.55C30.8367 2429.76 26.5199 2434.2 25.3148 2440.47C24.1097 2446.74 24.1213 2458.98 29.2999 2459.97C34.4784 2460.97 39.0298 2449.6 40.2349 2443.34Z" stroke="#F7D9DE" stroke-width="5"/>
<path d="M15.5728 2462.96C13.0668 2469.53 16.6589 2477.28 24.0234 2480.09C31.3879 2482.9 39.23 2479.51 41.7359 2472.93C44.2419 2466.36 40.6498 2458.61 33.2854 2455.8C25.9209 2452.99 18.0788 2456.38 15.5728 2462.96Z" fill="#FFF8F8" stroke="#F7D9DE" stroke-width="5"/>
<path d="M30.0622 1561.88C43.9095 1560.61 39.9996 1578.6 39.9996 1578.6C39.9996 1578.6 57.5272 1572.29 59.0857 1583.76C60.6443 1595.24 42.6674 1593.88 42.6674 1593.88C42.6674 1593.88 55.9028 1606.55 44.9108 1612.46C33.9187 1618.36 29.9918 1603.15 29.9918 1603.15C29.9918 1603.15 20.7122 1617.17 11.5524 1607.92C2.3926 1598.66 18.0162 1594.37 18.0162 1594.37C18.0162 1594.37 1.08536 1588.65 4.10049 1579.06C7.11562 1569.47 23.4366 1577.77 23.4366 1577.77C23.4366 1577.77 16.2149 1563.16 30.0622 1561.88Z" stroke="#F7D9DE" stroke-width="5"/>
<path fill-rule="evenodd" clip-rule="evenodd" d="M29.8088 1749C33.6095 1742.31 41.0907 1732.4 48.4512 1736.21C55.8117 1740.03 58.5278 1748.45 54.9068 1755.58C51.8961 1761.52 41.7952 1774.83 38.4754 1779.15C38.1041 1779.64 37.9183 1779.88 37.6697 1780.01C37.453 1780.13 37.2002 1780.18 36.9549 1780.16C36.674 1780.14 36.4061 1780 35.8698 1779.71C31.077 1777.12 16.4255 1769.08 11.257 1764.89C5.04084 1759.85 3.96921 1751.02 9.25462 1744.57C14.54 1738.12 23.6117 1744.44 29.8088 1749Z" stroke="#F7D9DE" stroke-width="5" stroke-linecap="round" stroke-linejoin="round"/>
<path d="M54.7703 1672.75C59.1713 1668.13 60.2758 1662.04 57.2374 1659.14C54.199 1656.25 48.1681 1657.65 43.7672 1662.27C39.3662 1666.9 32.7589 1677.2 36.578 1680.84C40.397 1684.48 50.3694 1677.37 54.7703 1672.75Z" stroke="#F7D9DE" stroke-width="5"/>
<path d="M40.2349 1661.34C41.4399 1655.07 39.0769 1649.35 34.9568 1648.55C30.8367 1647.76 26.5199 1652.2 25.3148 1658.47C24.1097 1664.74 24.1213 1676.98 29.2999 1677.97C34.4784 1678.97 39.0298 1667.6 40.2349 1661.34Z" stroke="#F7D9DE" stroke-width="5"/>
<path d="M15.5728 1680.96C13.0668 1687.53 16.6589 1695.28 24.0234 1698.09C31.3879 1700.9 39.23 1697.51 41.7359 1690.93C44.2419 1684.36 40.6498 1676.61 33.2854 1673.8C25.9209 1670.99 18.0788 1674.38 15.5728 1680.96Z" fill="#FFF8F8" stroke="#F7D9DE" stroke-width="5"/>
<path d="M30.0622 1819.88C43.9095 1818.61 39.9996 1836.6 39.9996 1836.6C39.9996 1836.6 57.5272 1830.29 59.0857 1841.76C60.6443 1853.24 42.6674 1851.88 42.6674 1851.88C42.6674 1851.88 55.9028 1864.55 44.9108 1870.46C33.9187 1876.36 29.9918 1861.15 29.9918 1861.15C29.9918 1861.15 20.7122 1875.17 11.5524 1865.92C2.3926 1856.66 18.0162 1852.37 18.0162 1852.37C18.0162 1852.37 1.08536 1846.65 4.10049 1837.06C7.11562 1827.47 23.4366 1835.77 23.4366 1835.77C23.4366 1835.77 16.2149 1821.16 30.0622 1819.88Z" stroke="#F7D9DE" stroke-width="5"/>
<path fill-rule="evenodd" clip-rule="evenodd" d="M29.8088 2007C33.6095 2000.31 41.0907 1990.4 48.4512 1994.21C55.8117 1998.03 58.5278 2006.45 54.9068 2013.58C51.8961 2019.52 41.7952 2032.83 38.4754 2037.15C38.1041 2037.64 37.9183 2037.88 37.6697 2038.01C37.453 2038.13 37.2002 2038.18 36.9549 2038.16C36.674 2038.14 36.4061 2038 35.8698 2037.71C31.077 2035.12 16.4255 2027.08 11.257 2022.89C5.04084 2017.85 3.96921 2009.02 9.25462 2002.57C14.54 1996.12 23.6117 2002.44 29.8088 2007Z" stroke="#F7D9DE" stroke-width="5" stroke-linecap="round" stroke-linejoin="round"/>
<path d="M54.7703 1930.75C59.1713 1926.13 60.2758 1920.04 57.2374 1917.14C54.199 1914.25 48.1681 1915.65 43.7672 1920.27C39.3662 1924.9 32.7589 1935.2 36.578 1938.84C40.397 1942.48 50.3694 1935.37 54.7703 1930.75Z" stroke="#F7D9DE" stroke-width="5"/>
<path d="M40.2349 1919.34C41.4399 1913.07 39.0769 1907.35 34.9568 1906.55C30.8367 1905.76 26.5199 1910.2 25.3148 1916.47C24.1097 1922.74 24.1213 1934.98 29.2999 1935.97C34.4784 1936.97 39.0298 1925.6 40.2349 1919.34Z" stroke="#F7D9DE" stroke-width="5"/>
<path d="M15.5728 1938.96C13.0668 1945.53 16.6589 1953.28 24.0234 1956.09C31.3879 1958.9 39.23 1955.51 41.7359 1948.93C44.2419 1942.36 40.6498 1934.61 33.2854 1931.8C25.9209 1928.99 18.0788 1932.38 15.5728 1938.96Z" fill="#FFF8F8" stroke="#F7D9DE" stroke-width="5"/>
<path d="M30.0622 3133.88C43.9095 3132.61 39.9996 3150.6 39.9996 3150.6C39.9996 3150.6 57.5272 3144.29 59.0857 3155.76C60.6443 3167.24 42.6674 3165.88 42.6674 3165.88C42.6674 3165.88 55.9028 3178.55 44.9108 3184.46C33.9187 3190.36 29.9918 3175.15 29.9918 3175.15C29.9918 3175.15 20.7122 3189.17 11.5524 3179.92C2.3926 3170.66 18.0162 3166.37 18.0162 3166.37C18.0162 3166.37 1.08536 3160.65 4.10049 3151.06C7.11562 3141.47 23.4366 3149.77 23.4366 3149.77C23.4366 3149.77 16.2149 3135.16 30.0622 3133.88Z" stroke="#F7D9DE" stroke-width="5"/>
<path fill-rule="evenodd" clip-rule="evenodd" d="M29.8088 3321C33.6095 3314.31 41.0907 3304.4 48.4512 3308.21C55.8117 3312.03 58.5278 3320.45 54.9068 3327.58C51.8961 3333.52 41.7952 3346.83 38.4754 3351.15C38.1041 3351.64 37.9183 3351.88 37.6697 3352.01C37.453 3352.13 37.2002 3352.18 36.9549 3352.16C36.674 3352.14 36.4061 3352 35.8698 3351.71C31.077 3349.12 16.4255 3341.08 11.257 3336.89C5.04084 3331.85 3.96921 3323.02 9.25462 3316.57C14.54 3310.12 23.6117 3316.44 29.8088 3321Z" stroke="#F7D9DE" stroke-width="5" stroke-linecap="round" stroke-linejoin="round"/>
<path d="M54.7703 3244.75C59.1713 3240.13 60.2758 3234.04 57.2374 3231.14C54.199 3228.25 48.1681 3229.65 43.7672 3234.27C39.3662 3238.9 32.7589 3249.2 36.578 3252.84C40.397 3256.48 50.3694 3249.37 54.7703 3244.75Z" stroke="#F7D9DE" stroke-width="5"/>
<path d="M40.2349 3233.34C41.4399 3227.07 39.0769 3221.35 34.9568 3220.55C30.8367 3219.76 26.5199 3224.2 25.3148 3230.47C24.1097 3236.74 24.1213 3248.98 29.2999 3249.97C34.4784 3250.97 39.0298 3239.6 40.2349 3233.34Z" stroke="#F7D9DE" stroke-width="5"/>
<path d="M15.5728 3252.96C13.0668 3259.53 16.6589 3267.28 24.0234 3270.09C31.3879 3272.9 39.23 3269.51 41.7359 3262.93C44.2419 3256.36 40.6498 3248.61 33.2854 3245.8C25.9209 3242.99 18.0788 3246.38 15.5728 3252.96Z" fill="#FFF8F8" stroke="#F7D9DE" stroke-width="5"/>
<path d="M30.0622 3391.88C43.9095 3390.61 39.9996 3408.6 39.9996 3408.6C39.9996 3408.6 57.5272 3402.29 59.0857 3413.76C60.6443 3425.24 42.6674 3423.88 42.6674 3423.88C42.6674 3423.88 55.9028 3436.55 44.9108 3442.46C33.9187 3448.36 29.9918 3433.15 29.9918 3433.15C29.9918 3433.15 20.7122 3447.17 11.5524 3437.92C2.3926 3428.66 18.0162 3424.37 18.0162 3424.37C18.0162 3424.37 1.08536 3418.65 4.10049 3409.06C7.11562 3399.47 23.4366 3407.77 23.4366 3407.77C23.4366 3407.77 16.2149 3393.16 30.0622 3391.88Z" stroke="#F7D9DE" stroke-width="5"/>
<path fill-rule="evenodd" clip-rule="evenodd" d="M29.8088 3579C33.6095 3572.31 41.0907 3562.4 48.4512 3566.21C55.8117 3570.03 58.5278 3578.45 54.9068 3585.58C51.8961 3591.52 41.7952 3604.83 38.4754 3609.15C38.1041 3609.64 37.9183 3609.88 37.6697 3610.01C37.453 3610.13 37.2002 3610.18 36.9549 3610.16C36.674 3610.14 36.4061 3610 35.8698 3609.71C31.077 3607.12 16.4255 3599.08 11.257 3594.89C5.04084 3589.85 3.96921 3581.02 9.25462 3574.57C14.54 3568.12 23.6117 3574.44 29.8088 3579Z" stroke="#F7D9DE" stroke-width="5" stroke-linecap="round" stroke-linejoin="round"/>
<path d="M54.7703 3502.75C59.1713 3498.13 60.2758 3492.04 57.2374 3489.14C54.199 3486.25 48.1681 3487.65 43.7672 3492.27C39.3662 3496.9 32.7589 3507.2 36.578 3510.84C40.397 3514.48 50.3694 3507.37 54.7703 3502.75Z" stroke="#F7D9DE" stroke-width="5"/>
<path d="M40.2349 3491.34C41.4399 3485.07 39.0769 3479.35 34.9568 3478.55C30.8367 3477.76 26.5199 3482.2 25.3148 3488.47C24.1097 3494.74 24.1213 3506.98 29.2999 3507.97C34.4784 3508.97 39.0298 3497.6 40.2349 3491.34Z" stroke="#F7D9DE" stroke-width="5"/>
<path d="M15.5728 3510.96C13.0668 3517.53 16.6589 3525.28 24.0234 3528.09C31.3879 3530.9 39.23 3527.51 41.7359 3520.93C44.2419 3514.36 40.6498 3506.61 33.2854 3503.8C25.9209 3500.99 18.0788 3504.38 15.5728 3510.96Z" fill="#FFF8F8" stroke="#F7D9DE" stroke-width="5"/>
<path d="M30.0622 3649.88C43.9095 3648.61 39.9996 3666.6 39.9996 3666.6C39.9996 3666.6 57.5272 3660.29 59.0857 3671.76C60.6443 3683.24 42.6674 3681.88 42.6674 3681.88C42.6674 3681.88 55.9028 3694.55 44.9108 3700.46C33.9187 3706.36 29.9918 3691.15 29.9918 3691.15C29.9918 3691.15 20.7122 3705.17 11.5524 3695.92C2.3926 3686.66 18.0162 3682.37 18.0162 3682.37C18.0162 3682.37 1.08536 3676.65 4.10049 3667.06C7.11562 3657.47 23.4366 3665.77 23.4366 3665.77C23.4366 3665.77 16.2149 3651.16 30.0622 3649.88Z" stroke="#F7D9DE" stroke-width="5"/>
<path fill-rule="evenodd" clip-rule="evenodd" d="M29.8088 3837C33.6095 3830.31 41.0907 3820.4 48.4512 3824.21C55.8117 3828.03 58.5278 3836.45 54.9068 3843.58C51.8961 3849.52 41.7952 3862.83 38.4754 3867.15C38.1041 3867.64 37.9183 3867.88 37.6697 3868.01C37.453 3868.13 37.2002 3868.18 36.9549 3868.16C36.674 3868.14 36.4061 3868 35.8698 3867.71C31.077 3865.12 16.4255 3857.08 11.257 3852.89C5.04084 3847.85 3.96921 3839.02 9.25462 3832.57C14.54 3826.12 23.6117 3832.44 29.8088 3837Z" stroke="#F7D9DE" stroke-width="5" stroke-linecap="round" stroke-linejoin="round"/>
<path d="M54.7703 3760.75C59.1713 3756.13 60.2758 3750.04 57.2374 3747.14C54.199 3744.25 48.1681 3745.65 43.7672 3750.27C39.3662 3754.9 32.7589 3765.2 36.578 3768.84C40.397 3772.48 50.3694 3765.37 54.7703 3760.75Z" stroke="#F7D9DE" stroke-width="5"/>
<path d="M40.2349 3749.34C41.4399 3743.07 39.0769 3737.35 34.9568 3736.55C30.8367 3735.76 26.5199 3740.2 25.3148 3746.47C24.1097 3752.74 24.1213 3764.98 29.2999 3765.97C34.4784 3766.97 39.0298 3755.6 40.2349 3749.34Z" stroke="#F7D9DE" stroke-width="5"/>
<path d="M15.5728 3768.96C13.0668 3775.53 16.6589 3783.28 24.0234 3786.09C31.3879 3788.9 39.23 3785.51 41.7359 3778.93C44.2419 3772.36 40.6498 3764.61 33.2854 3761.8C25.9209 3758.99 18.0788 3762.38 15.5728 3768.96Z" fill="#FFF8F8" stroke="#F7D9DE" stroke-width="5"/>
<path d="M30.0622 3907.88C43.9095 3906.61 39.9996 3924.6 39.9996 3924.6C39.9996 3924.6 57.5272 3918.29 59.0857 3929.76C60.6443 3941.24 42.6674 3939.88 42.6674 3939.88C42.6674 3939.88 55.9028 3952.55 44.9108 3958.46C33.9187 3964.36 29.9918 3949.15 29.9918 3949.15C29.9918 3949.15 20.7122 3963.17 11.5524 3953.92C2.3926 3944.66 18.0162 3940.37 18.0162 3940.37C18.0162 3940.37 1.08536 3934.65 4.10049 3925.06C7.11562 3915.47 23.4366 3923.77 23.4366 3923.77C23.4366 3923.77 16.2149 3909.16 30.0622 3907.88Z" stroke="#F7D9DE" stroke-width="5"/>
<path fill-rule="evenodd" clip-rule="evenodd" d="M29.8088 4095C33.6095 4088.31 41.0907 4078.4 48.4512 4082.21C55.8117 4086.03 58.5278 4094.45 54.9068 4101.58C51.8961 4107.52 41.7952 4120.83 38.4754 4125.15C38.1041 4125.64 37.9183 4125.88 37.6697 4126.01C37.453 4126.13 37.2002 4126.18 36.9549 4126.16C36.674 4126.14 36.4061 4126 35.8698 4125.71C31.077 4123.12 16.4255 4115.08 11.257 4110.89C5.04084 4105.85 3.96921 4097.02 9.25462 4090.57C14.54 4084.12 23.6117 4090.44 29.8088 4095Z" stroke="#F7D9DE" stroke-width="5" stroke-linecap="round" stroke-linejoin="round"/>
<path d="M54.7703 4018.75C59.1713 4014.13 60.2758 4008.04 57.2374 4005.14C54.199 4002.25 48.1681 4003.65 43.7672 4008.27C39.3662 4012.9 32.7589 4023.2 36.578 4026.84C40.397 4030.48 50.3694 4023.37 54.7703 4018.75Z" stroke="#F7D9DE" stroke-width="5"/>
<path d="M40.2349 4007.34C41.4399 4001.07 39.0769 3995.35 34.9568 3994.55C30.8367 3993.76 26.5199 3998.2 25.3148 4004.47C24.1097 4010.74 24.1213 4022.98 29.2999 4023.97C34.4784 4024.97 39.0298 4013.6 40.2349 4007.34Z" stroke="#F7D9DE" stroke-width="5"/>
<path d="M15.5728 4026.96C13.0668 4033.53 16.6589 4041.28 24.0234 4044.09C31.3879 4046.9 39.23 4043.51 41.7359 4036.93C44.2419 4030.36 40.6498 4022.61 33.2854 4019.8C25.9209 4016.99 18.0788 4020.38 15.5728 4026.96Z" fill="#FFF8F8" stroke="#F7D9DE" stroke-width="5"/>
<path d="M30.0622 4173.88C43.9095 4172.61 39.9996 4190.6 39.9996 4190.6C39.9996 4190.6 57.5272 4184.29 59.0857 4195.76C60.6443 4207.24 42.6674 4205.88 42.6674 4205.88C42.6674 4205.88 55.9028 4218.55 44.9108 4224.46C33.9187 4230.36 29.9918 4215.15 29.9918 4215.15C29.9918 4215.15 20.7122 4229.17 11.5524 4219.92C2.3926 4210.66 18.0162 4206.37 18.0162 4206.37C18.0162 4206.37 1.08536 4200.65 4.10049 4191.06C7.11562 4181.47 23.4366 4189.77 23.4366 4189.77C23.4366 4189.77 16.2149 4175.16 30.0622 4173.88Z" stroke="#F7D9DE" stroke-width="5"/>
<path fill-rule="evenodd" clip-rule="evenodd" d="M29.8088 4361C33.6095 4354.31 41.0907 4344.4 48.4512 4348.21C55.8117 4352.03 58.5278 4360.45 54.9068 4367.58C51.8961 4373.52 41.7952 4386.83 38.4754 4391.15C38.1041 4391.64 37.9183 4391.88 37.6697 4392.01C37.453 4392.13 37.2002 4392.18 36.9549 4392.16C36.674 4392.14 36.4061 4392 35.8698 4391.71C31.077 4389.12 16.4255 4381.08 11.257 4376.89C5.04084 4371.85 3.96921 4363.02 9.25462 4356.57C14.54 4350.12 23.6117 4356.44 29.8088 4361Z" stroke="#F7D9DE" stroke-width="5" stroke-linecap="round" stroke-linejoin="round"/>
<path d="M54.7703 4284.75C59.1713 4280.13 60.2758 4274.04 57.2374 4271.14C54.199 4268.25 48.1681 4269.65 43.7672 4274.27C39.3662 4278.9 32.7589 4289.2 36.578 4292.84C40.397 4296.48 50.3694 4289.37 54.7703 4284.75Z" stroke="#F7D9DE" stroke-width="5"/>
<path d="M40.2349 4273.34C41.4399 4267.07 39.0769 4261.35 34.9568 4260.55C30.8367 4259.76 26.5199 4264.2 25.3148 4270.47C24.1097 4276.74 24.1213 4288.98 29.2999 4289.97C34.4784 4290.97 39.0298 4279.6 40.2349 4273.34Z" stroke="#F7D9DE" stroke-width="5"/>
<path d="M15.5728 4292.96C13.0668 4299.53 16.6589 4307.28 24.0234 4310.09C31.3879 4312.9 39.23 4309.51 41.7359 4302.93C44.2419 4296.36 40.6498 4288.61 33.2854 4285.8C25.9209 4282.99 18.0788 4286.38 15.5728 4292.96Z" fill="#FFF8F8" stroke="#F7D9DE" stroke-width="5"/>
<path d="M30.0622 4431.88C43.9095 4430.61 39.9996 4448.6 39.9996 4448.6C39.9996 4448.6 57.5272 4442.29 59.0857 4453.76C60.6443 4465.24 42.6674 4463.88 42.6674 4463.88C42.6674 4463.88 55.9028 4476.55 44.9108 4482.46C33.9187 4488.36 29.9918 4473.15 29.9918 4473.15C29.9918 4473.15 20.7122 4487.17 11.5524 4477.92C2.3926 4468.66 18.0162 4464.37 18.0162 4464.37C18.0162 4464.37 1.08536 4458.65 4.10049 4449.06C7.11562 4439.47 23.4366 4447.77 23.4366 4447.77C23.4366 4447.77 16.2149 4433.16 30.0622 4431.88Z" stroke="#F7D9DE" stroke-width="5"/>
</svg>
